<?xml version="1.0" encoding="utf-8"?>
<!-- Generator: Adobe Illustrator 24.3.0, SVG Export Plug-In . SVG Version: 6.00 Build 0)  -->
<svg version="1.1" id="Ebene_1" xmlns="http://www.w3.org/2000/svg" xmlns:xlink="http://www.w3.org/1999/xlink" x="0px" y="0px"
	 viewBox="0 0 283.46 283.46" style="enable-background:new 0 0 283.46 283.46;" xml:space="preserve">
<style type="text/css">
	.st0{fill:#66B32E;}
	.st1{fill:#2A4B9B;}
	.st2{fill:none;stroke:#010202;stroke-width:5;stroke-linecap:round;stroke-miterlimit:10;}
	.st3{fill:#010202;}
	.st4{fill:#66B330;}
	.st5{fill:#2B4B9A;}
	.st6{fill:none;stroke:#000000;stroke-width:5;stroke-miterlimit:10;}
	.st7{fill:#2B4C9A;}
	.st8{fill:none;stroke:#000000;stroke-miterlimit:10;}
	.st9{fill:none;stroke:#000000;stroke-width:10;stroke-miterlimit:10;}
	.st10{fill:none;stroke:#000000;stroke-width:10;stroke-linecap:round;stroke-linejoin:round;stroke-miterlimit:10;}
	.st11{fill:none;stroke:#000000;stroke-width:15;stroke-miterlimit:10;}
	.st12{fill:none;stroke:#000000;stroke-width:15;stroke-linecap:round;stroke-linejoin:round;stroke-miterlimit:10;}
</style>
<g>
	<path class="st9" d="M240.23,60.35c-23.25-28.1-58.3-46.09-97.56-46.37c-0.31-0.01-0.63-0.01-0.94-0.01s-0.63,0-0.94,0.01
		c-39.26,0.28-74.31,18.27-97.56,46.37c-18.27,22.1-29.26,50.46-29.26,81.38s10.99,59.28,29.26,81.38
		c23.25,28.1,58.3,46.09,97.56,46.37c0.31,0.01,0.63,0.01,0.94,0.01s0.63,0,0.94-0.01c39.26-0.28,74.31-18.27,97.56-46.37
		c18.27-22.1,29.26-50.46,29.26-81.38S258.5,82.45,240.23,60.35z M100.25,204.4c-2.27,0-4.33-0.98-5.84-2.57
		c-1.59-1.65-2.57-3.97-2.57-6.54V138.2c-3.93,0-6.54-3.49-6.54-7.14c0-1.73,0.59-3.51,1.92-4.95l43.89-39.57l6-5.41
		c1.28-1.38,2.95-2.08,4.62-2.08c1.67,0,3.34,0.7,4.62,2.08l5.99,5.41h0.01l14.96,13.49v-8.87H183v23.01l13.24,11.94
		c4.12,4.46,1.2,12.09-4.62,12.09v57.09c0,2.57-0.99,4.9-2.57,6.55c-1.52,1.59-3.57,2.56-5.84,2.56H100.25z"/>
	<path class="st9" d="M204.63,77.36c-12.47-37.47-35.52-62.79-61.96-63.38c-0.31-0.01-0.63-0.01-0.94-0.01s-0.63,0-0.94,0.01
		c-26.44,0.59-49.49,25.91-61.96,63.38c-6.3,18.9-9.91,40.9-9.91,64.37c0,23.47,3.61,45.47,9.91,64.37
		c12.47,37.47,35.52,62.79,61.96,63.38c0.31,0.01,0.63,0.01,0.94,0.01s0.63,0,0.94-0.01c26.44-0.59,49.49-25.91,61.96-63.38
		c6.3-18.9,9.91-40.9,9.91-64.37C214.54,118.26,210.93,96.26,204.63,77.36z M183.21,204.4h-82.96c-2.27,0-4.33-0.98-5.84-2.57
		c-1.59-1.65-2.57-3.97-2.57-6.54V138.2c-3.93,0-6.54-3.49-6.54-7.14c0-1.73,0.59-3.51,1.92-4.95l43.89-39.57l6-5.41
		c1.28-1.38,2.95-2.08,4.62-2.08c1.67,0,3.34,0.7,4.62,2.08l5.99,5.41h0.01l14.96,13.49v-8.87H183v23.01l13.24,11.94
		c4.12,4.46,1.2,12.09-4.62,12.09v57.09c0,2.57-0.99,4.9-2.57,6.55C187.53,203.43,185.48,204.4,183.21,204.4z"/>
	<line class="st9" x1="141.73" y1="269.49" x2="141.73" y2="204.4"/>
	<line class="st9" x1="141.73" y1="79.05" x2="141.73" y2="13.97"/>
	<polyline class="st9" points="91.84,141.73 68.92,141.73 13.97,141.73 	"/>
	<polyline class="st9" points="191.62,141.73 214.54,141.73 269.49,141.73 	"/>
	<path class="st9" d="M43.23,60.35c9.92,6.83,21.97,12.62,35.59,17.01h0.01c15.66,5.06,33.39,8.29,52.28,9.18"/>
	<path class="st9" d="M240.23,60.35c-9.92,6.84-21.98,12.62-35.6,17.01c-15.67,5.07-33.39,8.3-52.28,9.18h-0.01"/>
	<path class="st9" d="M43.23,223.11c9.92-6.83,21.97-12.62,35.59-17.01h0.01c5-1.62,10.2-3.04,15.58-4.27"/>
	<path class="st9" d="M240.23,223.11c-9.92-6.84-21.98-12.62-35.6-17.01c-4.99-1.62-10.19-3.05-15.58-4.26"/>
</g>
</svg>
